# Aspose.3D Wavefront OBJ Exporter
# Copyright 2004-2020 Aspose Pty Ltd.
# File created: 3/4/2021 6:38:13 AM


#
# object obj_12960028
#

v -4.25 -8.34375 -4.000159578576579E-12
v -4.25 -8.34375 -0.5
v 4.25 -8.34375 -0.5
v 4.25 -8.34375 -4.000159578576579E-12
v 4.25 8.15625 -0.5
v 4.25 8.15625 -4.0000914906801466E-12
v -4.25 8.15625 -0.5
v -4.25 8.15625 -4.0000914906801466E-12
v 5.25 -8.34375 1.5
v 5.25 -8.34375 -0.5
v 5.25 8.15625 -0.5
v 5.25 8.15625 1.5
v 4.25 8.15625 1.5
v 4.25 -8.34375 1.5
v -4.25 -8.34375 1.5
v -4.25 8.15625 1.5
v -5.25 8.15625 -0.5
v -5.25 8.15625 1.5
v -5.25 -8.34375 -0.5
v -5.25 -8.34375 1.5
v -4.25 -6.34375 -12.5
v -4.25 -6.34375 -0.5
v -4.25 -8.34375 -12.5
v -5.25 -6.34375 -0.5
v -5.25 -6.34375 -12.5
v -5.25 -8.34375 -12.5
v -4.25 9.15625 -12.5
v -4.25 9.15625 -0.5
v -4.25 7.15625 -0.5
v -4.25 7.15625 -12.5
v -5.25 9.15625 -0.5
v -5.25 7.15625 -0.5
v -5.25 9.15625 -12.5
v -5.25 7.15625 -12.5
v 5.25 -6.34375 -12.5
v 5.25 -6.34375 -0.5
v 5.25 -8.34375 -12.5
v 4.25 -6.34375 -0.5
v 4.25 -6.34375 -12.5
v 4.25 -8.34375 -12.5
v 5.25 9.15625 -12.5
v 5.25 9.15625 -0.5
v 5.25 7.15625 -0.5
v 5.25 7.15625 -12.5
v 4.25 9.15625 -0.5
v 4.25 7.15625 -0.5
v 4.25 9.15625 -12.5
v 4.25 7.15625 -12.5
v 5.25 8.15625 1.54862153530120848
v -5.25 8.15625 1.54862153530120848
v -5.25 9.15625 3.73743677139282224
v 5.25 9.15625 3.73743677139282224
v -5.25 9.11993980407714844 3.70112705230712888
v 5.25 9.11993980407714844 3.70112705230712888
v 5.25 8.17528057098388672 1.64429235458374024
v 5.25 8.87607097625732416 3.33615088462829588
v -5.25 8.17528057098388672 1.64429235458374024
v -5.25 8.87607097625732416 3.33615088462829588
# 58 vertices

vn 0 -1 0
vn 1 0 0
vn 0 1 0
vn -1 0 0
vn 0 -4.126539378231038E-18 1
vn 0 0 -1
vn 0 0 1
vn 0 -0.70710211992263792 0.70711141824722288
vn 0 -0.92387962341308592 0.38268327713012696
vn 0 -0.83147007226943968 0.55556952953338624
vn 0 -0.98078435659408576 0.19509488344192504
# 11 vertex normals

g obj_12960028
s 1
f 1//1 2//1 3//1
f 3//1 4//1 1//1
f 4//2 3//2 5//2
f 5//2 6//2 4//2
f 6//3 5//3 7//3
f 7//3 8//3 6//3
f 8//4 7//4 2//4
f 2//4 1//4 8//4
f 4//5 6//5 8//5
f 8//5 1//5 4//5
f 3//6 2//6 7//6
f 7//6 5//6 3//6
f 9//2 10//2 11//2
f 11//2 12//2 9//2
f 12//3 11//3 5//3
f 5//3 13//3 12//3
f 13//4 5//4 3//4
f 3//4 14//4 13//4
f 14//1 3//1 10//1
f 10//1 9//1 14//1
f 14//7 9//7 12//7
f 12//7 13//7 14//7
f 11//6 10//6 3//6
f 3//6 5//6 11//6
f 15//2 2//2 7//2
f 7//2 16//2 15//2
f 16//3 7//3 17//3
f 17//3 18//3 16//3
f 18//4 17//4 19//4
f 19//4 20//4 18//4
f 20//1 19//1 2//1
f 2//1 15//1 20//1
f 20//7 15//7 16//7
f 16//7 18//7 20//7
f 7//6 2//6 19//6
f 19//6 17//6 7//6
f 21//2 22//2 2//2
f 2//2 23//2 21//2
f 2//7 22//7 24//7
f 24//7 19//7 2//7
f 25//4 26//4 19//4
f 19//4 24//4 25//4
f 23//6 26//6 25//6
f 25//6 21//6 23//6
f 26//1 23//1 2//1
f 2//1 19//1 26//1
f 24//3 22//3 21//3
f 21//3 25//3 24//3
f 27//2 28//2 29//2
f 29//2 30//2 27//2
f 29//7 28//7 31//7
f 31//7 32//7 29//7
f 32//4 31//4 33//4
f 33//4 34//4 32//4
f 34//6 33//6 27//6
f 27//6 30//6 34//6
f 34//1 30//1 29//1
f 29//1 32//1 34//1
f 31//3 28//3 27//3
f 27//3 33//3 31//3
f 35//2 36//2 10//2
f 10//2 37//2 35//2
f 3//7 10//7 36//7
f 36//7 38//7 3//7
f 39//4 40//4 3//4
f 3//4 38//4 39//4
f 40//6 39//6 35//6
f 35//6 37//6 40//6
f 40//1 37//1 10//1
f 10//1 3//1 40//1
f 38//3 36//3 35//3
f 35//3 39//3 38//3
f 41//2 42//2 43//2
f 43//2 44//2 41//2
f 43//7 42//7 45//7
f 45//7 46//7 43//7
f 47//4 48//4 46//4
f 46//4 45//4 47//4
f 48//6 47//6 41//6
f 41//6 44//6 48//6
f 48//1 44//1 43//1
f 43//1 46//1 48//1
f 45//3 42//3 41//3
f 41//3 47//3 45//3
f 17//1 11//1 49//1
f 49//1 50//1 17//1
f 11//6 17//6 31//6
f 31//6 42//6 11//6
f 42//3 31//3 51//3
f 51//3 52//3 42//3
f 52//8 51//8 53//8
f 53//8 54//8 52//8
f 42//2 52//2 54//2
f 42//2 55//2 49//2
f 54//2 56//2 42//2
f 56//2 55//2 42//2
f 49//2 11//2 42//2
f 31//4 57//4 58//4
f 58//4 53//4 31//4
f 31//4 17//4 50//4
f 50//4 57//4 31//4
f 53//4 51//4 31//4
f 55//9 56//9 58//9
f 58//9 57//9 55//9
f 54//10 53//10 58//10
f 58//10 56//10 54//10
f 55//11 57//11 50//11
f 50//11 49//11 55//11
#108 polygons

